<?xml version="1.0" encoding="utf-8"?>
<!-- Generator: Adobe Illustrator 24.0.2, SVG Export Plug-In . SVG Version: 6.00 Build 0)  -->
<svg version="1.1" id="Layer_1" xmlns="http://www.w3.org/2000/svg" xmlns:xlink="http://www.w3.org/1999/xlink" x="0px" y="0px"
	 viewBox="0 0 141.7 141.7" style="enable-background:new 0 0 141.7 141.7;" xml:space="preserve">
<style type="text/css">
	.st0{fill:#E94B4D;}
</style>
<path class="st0" d="M120.4,52.8H23.7c-3.1,0-5.7-2.5-5.7-5.7v0c0-3.1,2.5-5.7,5.7-5.7h96.7c3.1,0,5.7,2.5,5.7,5.7v0
	C126.1,50.3,123.5,52.8,120.4,52.8z"/>
<path class="st0" d="M120.4,75.5H23.7c-3.1,0-5.7-2.5-5.7-5.7v0c0-3.1,2.5-5.7,5.7-5.7h96.7c3.1,0,5.7,2.5,5.7,5.7v0
	C126.1,73,123.5,75.5,120.4,75.5z"/>
<path class="st0" d="M122.3,99.5H23.7c-3.1,0-5.7-2.5-5.7-5.7v0c0-3.1,2.5-5.7,5.7-5.7h98.6c3.1,0,5.7,2.5,5.7,5.7v0
	C127.9,96.9,125.4,99.5,122.3,99.5z"/>
</svg>
