<?xml version="1.0" encoding="utf-8"?>
<!-- Generator: Adobe Illustrator 24.0.2, SVG Export Plug-In . SVG Version: 6.00 Build 0)  -->
<svg version="1.1" id="Layer_1" xmlns="http://www.w3.org/2000/svg" xmlns:xlink="http://www.w3.org/1999/xlink" x="0px" y="0px"
	 viewBox="0 0 525 335" style="enable-background:new 0 0 525 335;" xml:space="preserve">
<g id="layer101">
	<path d="M5.3,332.5c-3.8-1.6-3.8-1.7-1.7-5.1c1.2-1.8,2-2.2,2.9-1.4c4.6,3.9,13.8,2.9,15.6-1.7c1.1-3.4,0.9-28.6,0.9-36.3
		c1.7,0,5.3,0,7,0c-0.4,11.8,2.3,44.8-6,44.5C20.3,334.4,9.6,334.4,5.3,332.5z"/>
	<path d="M47.1,332.2c-8.4-2.3-9.8-18.7-6.3-25.2c6.6-12.7,29.1-10.5,28.9,6.1c0,0,0.6,4.9,0.6,4.9H58.1c-13.6,0-14.3,0.5-9.3,6.1
		c3.2,4.7,10.5,3.3,15,2.6c3.1-0.8,3.2-0.8,3.2,2.6C68,337.2,50.2,333.5,47.1,332.2z M62,311.1c-1.5-8.6-13.3-6.5-16.2,0.9
		C48.8,311.9,61.4,312.3,62,311.1z"/>
	<path d="M78,317.6c0.1-23.7-1.5-16.5,20.1-18.9c-0.6,3.5,0.8,7.5-4.6,6.9c-9.4,0.2-8.5-1.4-8.5,14.4v14c-1.7,0-5.3,0-7,0V317.6z"/>
	<path d="M109,331.8c-12.4-8.1-7.8-34.5,8.8-32.8C147,300.1,135.5,345.4,109,331.8z M124.3,325.3c8.4-8.2-1.5-27.9-12.4-16.5
		C103.4,318.3,115,333.6,124.3,325.3z"/>
	<path d="M149,332c-9.4-4.9-10.7-21.1-2.3-29.2c3.2-3.1,3.8-3.3,10.8-3.3c12.9-1.2,14.7,8.6,14.5,18.5c-3.8,0.3-25.3-1-23,1.8
		c0,7.9,12.6,8.6,19.6,6.5c0.3,1.2,2.6,7.2-0.8,7.1C162.9,334.7,152.5,333.9,149,332z M165,311.4c-1.1-8.2-15.2-7-16,0
		C148.6,312.2,165.4,312.2,165,311.4z"/>
	<path d="M180,317.1v-16.8c31.8-5.6,29.1,4.5,29,33.7c-1.7,0-5.3,0-7,0c-1.1-13.7,5.4-33.4-15-27.8c0,6.9,0,20.9,0,27.8
		c-1.7,0-5.3,0-7,0V317.1z"/>
	<path d="M235.5,332.8c-0.7-2.9-0.1-35.7,0-44.3c13.8,0.2,27.2-2.3,34.2,8.8c4,3.4,4,24,0,27.4c-4.7,6.8-9.4,8.7-22.4,9.1
		C238.4,334.1,235.9,333.9,235.5,332.8z M257.9,326.2c10.2-5.3,10.1-25.1-0.1-30.4c-3.5-2-10.8-2.2-15.3-2.3
		c-0.1,6.8-0.7,31.8,0,34.3C243.2,329.7,253.1,328.7,257.9,326.2z"/>
	<path d="M288,332.2c-7.2-3.8-10.2-15.8-6.1-24.8c2.6-5.6,7.3-8.4,14.3-8.4c11.3-0.5,15.5,8.4,14.8,19h-12.1c-12,0-12,0-11.4,2.3
		c1.4,4.5,5,7,10.2,7.1c2.6,0,6-0.3,7.4-0.7c2.4-0.6,2.7-0.4,3.1,2.4C309.8,336.9,291.6,333.9,288,332.2z M304,311.4
		c-1-6.8-13-7.4-16-1.5c-1,2.1-0.9,2.1,7.5,2.1C300.2,312,304,311.7,304,311.4z"/>
	<path d="M345.4,328.3c-5.3-11.9-15.4-38.2-15.4-40c0.3-0.4,6.4-0.3,7.8-0.3c3.7,10.7,10.5,29.9,13.9,37.1
		c3.9-8.4,9.9-25.8,13.8-37.1c1.5,0.1,7.3-0.3,7.5,0.8c0,1.2-9.4,25.8-13.7,35.7c-3.8,8.9-3.9,9-7.6,9.3
		C348,334.1,347.9,334,345.4,328.3z"/>
	<path d="M382.1,332.2c-8.4-2.3-9.8-18.7-6.3-25.2c6.6-12.7,29.1-10.5,28.9,6.1c0,0,0.6,4.9,0.6,4.9h-12.2c-13.6,0-14.3,0.5-9.3,6.1
		c3.2,4.7,10.5,3.3,15,2.6c3.1-0.8,3.2-0.8,3.2,2.6C403,337.2,385.2,333.5,382.1,332.2z M397,311.1c-1.5-8.6-13.3-6.5-16.2,0.9
		C383.8,311.9,396.4,312.3,397,311.1z"/>
	<path d="M416,331.2c-5.1-0.6-3.9-31.2-3.5-42.7c1.6-0.1,4.9-0.4,6.5-0.6c0,2.8,0,8.3,0,11.1c3.5,0,10.5,0,14,0c0,1.5,0,4.5,0,6
		c-3.5,0-10.5,0-14,0c0,10.4-1.5,26.6,10,22c3.9-1.1,3.6-1.3,4.4,2.6c0.8,3.7-0.6,4.4-9.2,4.4C419.6,334,418.4,333.6,416,331.2z"/>
	<path d="M443,331.2c-5.1-0.6-3.9-31.2-3.5-42.7c1.6-0.1,4.9-0.4,6.5-0.6c0,2.8,0,8.3,0,11.1c3.5,0,10.5,0,14,0c0,1.5,0,4.5,0,6
		c-3.5,0-10.5,0-14,0c0,10.4-1.5,26.6,10,22c3.9-1.1,3.6-1.3,4.4,2.6c0.8,3.7-0.6,4.4-9.2,4.4C446.6,334,445.4,333.6,443,331.2z"/>
	<path d="M472,332.2c-7.2-3.8-10.2-15.8-6.1-24.8c2.6-5.6,7.3-8.4,14.3-8.4c11.3-0.5,15.5,8.4,14.8,19h-12.1c-12,0-12,0-11.4,2.3
		c1.4,4.5,5,7,10.2,7.1c2.6,0,6-0.3,7.4-0.7c2.4-0.6,2.7-0.4,3.1,2.4C493.8,336.9,475.6,333.9,472,332.2z M488,311.4
		c-1-6.8-13-7.4-16-1.5c-1,2.1-0.9,2.1,7.5,2.1C484.2,312,488,311.7,488,311.4z"/>
	<path d="M503,317.6c0-11.8,0.3-16.7,1.2-17.2c1.8-1.2,17.8-1.8,18.8-0.8c0.5,0.5,0.6,2.2,0.3,3.8c-0.5,2.6-0.8,2.8-4,2.3
		c-3.1-0.6-6.5-0.1-9.3,0.6c0,6.9,0,20.8,0,27.7c-1.7,0-5.3,0-7,0V317.6z"/>
	<path d="M190.5,209.8c2-53.3-6.9-151.5,7.1-182.4C209.1-1,247.1,1.8,282,2c-0.1,10.3-0.3,31.2-0.5,41.5c-9.8,0.9-25.7,1.5-28.3,9.8
		c-3-11-2,184.8-2.7,222.2c-14.8,0.2-44.5,0.4-59.3,0.5L190.5,209.8z"/>
	<path d="M261.4,274.7c-0.5-2.7-0.1-32.4,0.1-40.2c9.8-1,25.2-1.1,28-9.6c3.6,13.9,2.2-185.4,3-222.4C307.3,2.3,337,2.1,351.8,2
		c0.2,45.7,4,203.2-1.7,236.5C341.7,281.3,288.2,278.2,261.4,274.7z"/>
</g>
</svg>
